HIERARCHY
ROOT Hips
{
  OFFSET -120.941 90.2419 36.7815
  CHANNELS 6 Xposition Yposition Zposition Zrotation Xrotation Yrotation
  JOINT RightUpLeg
  {
    OFFSET -8.9458 -8.66707 0.101652
    CHANNELS 3 Zrotation Xrotation Yrotation
    JOINT RightLeg
    {
      OFFSET 0 -44.4227 1.3727
      CHANNELS 3 Zrotation Xrotation Yrotation
      JOINT RightFoot
      {
        OFFSET 0.253549 -42.0924 -1.46059
        CHANNELS 3 Zrotation Xrotation Yrotation
        JOINT RightToes
        {
          OFFSET 0.04 -4.41509 8.4991
          CHANNELS 3 Zrotation Xrotation Yrotation
          End Site
          {
            OFFSET -0.08 -0.137448 9.77979
          }
        }
      }
    }
  }
  JOINT Spine
  {
    OFFSET 0 11.8905 0
    CHANNELS 3 Zrotation Xrotation Yrotation
    JOINT Spine1
    {
      OFFSET 0 25.6574 0.127663
      CHANNELS 3 Zrotation Xrotation Yrotation
      JOINT HEad
      {
        OFFSET 0 8.73416 0.011341
        CHANNELS 3 Zrotation Xrotation Yrotation
        End Site
        {
          OFFSET -0.29 12.7742 2.51395
        }
      }
      JOINT LeftShoulder1
      {
        OFFSET 8.99 -0.362252 -0.22
        CHANNELS 3 Zrotation Xrotation Yrotation
        JOINT LeftArm
        {
          OFFSET 10.2827 -0.00338 0.322123
          CHANNELS 3 Zrotation Xrotation Yrotation
          JOINT LeftForeArm
          {
            OFFSET 32.7669 0.099144 -1.42434
            CHANNELS 3 Zrotation Xrotation Yrotation
            JOINT LeftHand
            {
              OFFSET 27.5643 0.085362 1.02216
              CHANNELS 3 Zrotation Xrotation Yrotation
              End Site
              {
                OFFSET 16.7443 -0.6 1.50291
              }
            }
          }
        }
      }
      JOINT RightShoulder
      {
        OFFSET -8.99 -0.362252 -0.22
        CHANNELS 3 Zrotation Xrotation Yrotation
        JOINT RightArm
        {
          OFFSET -10.2827 -0.00338 0.322123
          CHANNELS 3 Zrotation Xrotation Yrotation
          JOINT RightForeArm
          {
            OFFSET -32.8971 0.099144 -1.42434
            CHANNELS 3 Zrotation Xrotation Yrotation
            JOINT RightHand
            {
              OFFSET -27.4921 0.085362 1.02216
              CHANNELS 3 Zrotation Xrotation Yrotation
              End Site
              {
                OFFSET -16.6312 -0.6 1.50291
              }
            }
          }
        }
      }
    }
  }
  JOINT LeftUpLeg
  {
    OFFSET 8.9458 -8.66707 0.101652
    CHANNELS 3 Zrotation Xrotation Yrotation
    JOINT LeftLeg
    {
      OFFSET 0 -44.4227 1.3727
      CHANNELS 3 Zrotation Xrotation Yrotation
      JOINT LeftFoot
      {
        OFFSET -0.253549 -42.0924 -1.46059
        CHANNELS 3 Zrotation Xrotation Yrotation
        JOINT LeftToes
        {
          OFFSET -0.04 -4.41509 8.4991
          CHANNELS 3 Zrotation Xrotation Yrotation
          End Site
          {
            OFFSET 0.08 -0.047448 9.77979
          }
        }
      }
    }
  }
}
MOTION
Frames:	20
Frame Time:	0.0166667
-101.313 91.3627 32.8738 -7.1288 3.54835 -106.77 -28.9799 -18.2531 10.3457 15.1259 34.2431 -15.192 27.2892 33.2033 -9.82162 -34.5777 -32.2779 4.10162 3.63568 10.6456 -3.37165 -1.14842 21.2295 -5.72281 10.5908 -8.52283 -32.9511 1.59028e-015 -2.38542e-015 3.18055e-015 -65.1133 -7.46752 -71.1618 16.5634 22.6307 -124.348 -0.924516 9.67825 19.5136 35.7934 -3.64456 -11.9518 49.7253 -42.9178 30.4267 -19.2851 9.8251 149.341 42.3143 -2.98867 -36.1513 36.6768 -8.69461 -11.9748 -14.407 26.5907 14.0845 -5.25559 31.8817 1.60986 35.6452 -49.3916 0.620577 
-102.242 90.8546 34.256 -6.95759 3.97848 -109.248 -28.4637 -21.548 7.62553 16.3209 37.0254 -15.1099 28.0271 31.5058 -9.67414 -37.6228 -35.2958 4.38141 3.58051 10.917 -3.38642 -1.88936 21.6989 -5.62733 11.1885 -9.1348 -31.197 3.18055e-015 -3.18055e-015 -0 -65.9653 -7.68332 -76.5381 16.7843 25.2793 -121.512 -0.810125 9.70068 18.9659 33.1681 -2.60576 -9.72118 54.4187 -42.7458 30.3193 -20.521 10.2609 148.39 42.2144 -3.04161 -36.3516 35.4804 -7.07044 -12.6844 -11.9059 24.3788 11.5242 -6.80279 31.5824 2.12958 37.5969 -50.2217 2.82002 
-103.239 90.1091 35.6385 -6.91072 4.64988 -111.497 -27.4626 -24.0186 5.04233 17.0861 39.5023 -14.5272 29.2556 29.9425 -9.71072 -40.4075 -37.9788 4.47037 3.41328 11.2879 -3.42042 -2.43493 22.3536 -5.57765 11.5731 -9.93696 -29.557 1.59028e-015 -1.59028e-015 -3.18055e-015 -66.9986 -7.64885 -81.5126 16.4428 28.0439 -118.211 -0.785094 9.71804 17.8927 30.2871 -1.66983 -7.48107 59.1138 -43.2354 31.0651 -21.4565 11.6459 146.95 40.7136 -2.47545 -36.1928 34.3674 -5.38767 -12.9369 -9.55534 23.0798 9.46652 -6.31096 33.2586 2.04579 43.8607 -53.0383 8.89674 
-104.306 89.2106 36.9505 -6.95706 5.50099 -113.482 -26.0187 -25.6092 2.95631 17.4739 41.5281 -14.1383 30.4726 29.2835 -9.95585 -43.0842 -40.2261 4.02241 3.09529 11.7193 -3.45376 -2.72317 23.1269 -5.56725 11.7297 -10.9439 -28.0959 3.18055e-015 -9.54166e-015 3.18055e-015 -68.1328 -7.22793 -85.871 15.9062 30.3806 -114.992 -0.982962 9.7115 16.7728 27.5858 -0.950417 -5.52337 63.3963 -43.9792 32.7993 -21.8997 13.9236 145.077 37.8467 -1.36183 -35.7293 33.4703 -3.71826 -12.9305 -7.68006 22.9203 9.60851 -3.25993 35.946 1.01407 54.064 -56.1659 18.8537 
-105.445 88.2402 38.1221 -7.08539 6.39628 -115.238 -24.3428 -26.4249 1.63038 17.7111 43.0515 -14.9512 30.8606 29.9497 -10.2718 -46.1131 -41.9813 2.37802 2.60617 12.1632 -3.44803 -2.81624 23.939 -5.55912 11.6829 -12.1066 -26.8702 3.18055e-015 -7.95139e-016 6.36111e-015 -69.2165 -6.45341 -89.4073 15.5568 31.9979 -112.469 -1.38045 9.68307 15.9901 25.501 -0.497016 -4.12919 66.8703 -44.5181 35.4067 -21.7711 16.7576 142.877 34.0228 0.115974 -34.9219 32.8241 -2.03228 -12.9228 -6.45534 23.7196 12.4459 2.043 37.9272 -1.06734 65.5707 -57.8455 30.4632 
-106.665 87.2853 39.1031 -7.29795 7.16286 -116.852 -22.8169 -26.7361 1.26345 18.2403 44.1612 -17.6918 29.4722 31.6769 -10.2411 -49.2894 -42.8926 -0.563294 1.96828 12.5718 -3.37315 -2.85727 24.7119 -5.51547 11.5093 -13.3341 -25.9049 1.59028e-015 6.36111e-015 -6.36111e-015 -70.1008 -5.51675 -91.9537 15.6801 32.8311 -111.107 -1.85305 9.64049 15.7632 24.2612 -0.281251 -3.40606 69.293 -44.6016 38.4538 -21.1494 19.6459 140.613 29.8855 1.69344 -33.7678 32.3123 -0.188746 -13.0197 -5.90587 24.866 17.1175 8.60642 37.8969 -3.70537 74.456 -57.5863 40.2323 
-107.974 86.4195 39.9015 -7.57424 7.6579 -118.39 -21.874 -26.9808 1.97545 19.5291 45.0914 -21.9499 26.2326 33.6405 -9.52837 -51.1955 -42.5083 -3.58879 1.23457 12.9023 -3.21791 -2.95447 25.3644 -5.4414 11.3058 -14.5187 -25.1848 1.59028e-015 -4.77083e-015 -3.18055e-015 -70.7214 -4.66731 -93.3774 16.4318 32.8995 -111.148 -2.33323 9.58203 16.1747 23.778 -0.229936 -3.23422 70.7058 -44.3398 41.3703 -20.215 22.164 138.723 26.1545 3.07264 -32.4746 31.7232 1.83923 -13.1606 -5.91427 25.8317 22.1609 14.9455 35.7161 -5.95748 78.6317 -56.0486 46.2223 
-109.348 85.7359 40.5329 -7.8436 7.86233 -119.817 -21.6834 -27.5371 3.80117 21.7478 45.9611 -26.3213 22.769 35.3515 -8.57372 -50.7838 -41.0364 -5.2547 0.591331 13.1254 -3.02961 -3.1056 25.8314 -5.37026 11.1725 -15.5462 -24.6742 -3.18055e-015 1.03368e-014 3.18055e-015 -71.0095 -4.11911 -93.5982 17.7783 32.1952 -112.577 -2.85444 9.49664 17.1982 23.8561 -0.282192 -3.43336 71.3378 -44.0212 43.7211 -19.1187 24.1494 137.646 23.3718 4.05411 -31.3843 30.9906 3.93764 -13.2906 -6.27935 26.2851 26.3659 19.8238 32.4438 -7.23924 78.9609 -54.1563 48.8673 
-110.739 85.3402 40.9892 -8.00565 7.8757 -121.009 -22.0513 -28.489 6.53213 24.4924 46.6581 -29.524 21.4358 37.2186 -8.41299 -48.9845 -39.4826 -5.31963 0.261683 13.2477 -2.89813 -3.22589 26.0934 -5.32632 11.1829 -16.338 -24.3397 -1.59028e-015 -1.59028e-015 -6.36111e-015 -70.804 -3.99638 -92.5936 19.4388 30.6776 -115.087 -3.45431 9.37532 18.6871 24.3923 -0.418555 -3.92227 71.3369 -43.7846 45.2884 -17.9489 25.5742 137.603 21.7684 4.59325 -30.7318 30.2654 5.87087 -13.4586 -6.86701 26.1936 29.1882 22.7228 29.3985 -7.64151 77.4856 -52.6116 49.4326 
-112.106 85.3173 41.2449 -7.97928 7.84683 -121.888 -22.5844 -29.6083 9.50854 26.7805 47.0398 -30.8691 23.4857 39.6028 -9.75483 -47.1731 -38.8543 -3.90847 0.251809 13.285 -2.86092 -3.19865 26.1601 -5.3511 11.3055 -16.8838 -24.1276 -1.59028e-015 -6.36111e-015 3.18055e-015 -69.9684 -4.31348 -90.3491 21.0096 28.3503 -118.147 -4.11217 9.22322 20.3381 25.2724 -0.635547 -4.65989 70.6786 -43.5207 46.0242 -16.8072 26.3226 138.548 21.3677 4.71469 -30.6157 29.7753 7.44933 -13.7002 -7.6237 25.7428 30.5073 23.5387 27.2766 -7.45158 75.5694 -51.7969 48.6815 
-113.444 85.6903 41.2601 -7.71936 7.86862 -122.463 -22.9758 -30.5682 11.7799 27.6826 47.0917 -30.2302 28.0296 41.9183 -12.3255 -45.5416 -39.2461 -1.05127 0.509723 13.2389 -2.93301 -2.8992 26.0309 -5.51612 11.4005 -17.1899 -23.9689 -3.18055e-015 -3.18055e-015 -3.18055e-015 -68.5116 -4.95576 -86.8138 22.1986 25.3309 -121.176 -4.74957 9.06765 21.7223 26.2311 -0.895559 -5.49776 69.3089 -43.0451 45.9921 -15.8422 26.1346 140.259 22.1562 4.4228 -31.0872 29.645 8.60692 -13.8702 -8.39275 25.1668 30.2431 22.2411 26.2798 -6.83545 73.8947 -51.8365 47.0363 
-114.772 86.3703 41.014 -7.2299 7.933 -122.79 -23.1948 -31.172 12.6356 27.0469 46.7723 -28.2639 32.2833 43.275 -14.7051 -43.9744 -39.9343 2.26343 0.99655 13.0948 -3.11791 -2.28667 25.6768 -5.85897 11.3382 -17.23 -23.8474 3.18055e-015 -1.59028e-015 -6.36111e-015 -66.6016 -5.66015 -81.973 22.8877 21.9429 -123.696 -5.22061 8.9564 22.4798 26.9173 -1.11374 -6.17658 67.2861 -42.2877 45.3109 -15.2188 24.6624 142.427 24.2038 3.67924 -32.0887 29.8259 9.21879 -13.6937 -8.91305 24.9082 28.4148 18.8392 26.5414 -5.84286 73.2562 -52.7355 45.2458 
-116.093 87.2025 40.5149 -6.59345 7.95102 -122.925 -23.387 -31.3524 11.963 25.3482 45.8789 -26.1252 33.5086 43.2906 -15.2994 -42.8653 -40.2465 4.37823 1.63099 12.845 -3.38692 -1.4457 25.0923 -6.32652 11.0886 -17.0018 -23.8197 -1.59028e-015 -3.18055e-015 -0 -64.531 -6.07385 -76.0088 23.0609 18.727 -125.402 -5.3755 8.93101 22.4957 27.0923 -1.21552 -6.50497 64.8183 -41.3406 44.1964 -15.0764 21.6667 144.68 27.5696 2.46246 -33.3398 30.1543 9.08526 -13.0434 -9.06568 25.4584 25.3422 13.738 28.2226 -4.50834 74.3888 -54.3772 44.2383 
-117.381 88.0646 39.7994 -5.94932 7.86139 -122.911 -23.5871 -31.0232 10.1835 23.0878 44.1621 -24.4283 31.2448 41.6903 -13.7444 -41.8925 -39.5834 4.78786 2.30447 12.5245 -3.67506 -0.555987 24.3663 -6.78637 10.738 -16.5946 -23.9557 3.18055e-015 -1.59028e-015 -3.18055e-015 -62.5335 -5.87329 -69.3809 22.7993 16.1545 -126.119 -5.19997 8.99047 21.8921 26.7896 -1.20724 -6.52316 62.3693 -40.5793 43.1441 -15.4375 17.5348 146.604 31.9682 0.922535 -34.3266 30.498 8.102 -12.1688 -9.03788 27.0121 21.6406 7.87835 31.3426 -2.89736 77.04 -56.43 44.2287 
-118.61 88.8808 38.9332 -5.43836 7.6706 -122.815 -23.6593 -30.0634 7.92813 20.5203 41.4936 -22.7173 27.5395 38.2231 -11.1641 -39.6572 -37.3245 4.5628 2.862 12.1944 -3.88735 0.191904 23.6479 -7.10997 10.425 -16.138 -24.2809 -5.29669e-031 -4.77083e-015 -6.36111e-015 -60.73 -4.90174 -62.7163 22.3031 14.361 -125.79 -4.86848 9.08729 20.9592 26.2377 -1.15807 -6.43535 60.7803 -40.8844 42.9622 -16.1219 13.7529 147.894 36.6246 -0.541087 -34.5492 30.808 6.33046 -11.5552 -9.27314 29.4764 18.0652 2.24257 35.6467 -1.08566 79.5509 -58.5988 43.9773 
-119.789 89.6237 37.9287 -5.14237 7.427 -122.689 -23.3922 -28.3202 5.76915 17.7302 37.8128 -20.44 24.6865 33.7418 -8.96789 -35.7378 -33.7182 4.74756 3.22056 11.8923 -4.01023 0.735865 23.0345 -7.26369 10.199 -15.6874 -24.755 1.59028e-015 3.18055e-015 -3.18055e-015 -59.3495 -3.36757 -56.5836 21.7972 13.3188 -124.551 -4.61932 9.16626 20.0475 25.5304 -1.10273 -6.34567 60.9205 -43.0763 44.4096 -16.9139 12.0302 148.416 40.5457 -1.51237 -33.9751 31.1585 4.1031 -11.4958 -10.1546 32.3424 15.1482 -2.61939 40.6811 0.8535 79.4831 -60.9273 41.0966 
-120.941 90.2419 36.7815 -5.10451 7.15616 -122.605 -22.7427 -25.8309 4.10598 14.9415 33.2543 -17.9052 23.2015 30.1189 -7.66737 -31.5099 -29.9712 5.26968 3.22754 11.5968 -4.03761 1.09414 22.5126 -7.287 10.0167 -15.193 -25.2998 -1.76556e-031 -3.18055e-015 -3.18055e-015 -58.6563 -1.83756 -51.3407 21.3975 13.0968 -122.71 -4.57444 9.20197 19.4121 24.4995 -1.00519 -6.14213 63.0449 -46.7819 47.7953 -17.8617 12.6665 147.967 42.9056 -1.88667 -33.1604 31.5597 1.81094 -11.7768 -11.632 35.1909 12.9045 -6.64585 45.3889 2.84194 75.4272 -63.2659 34.1981 
-122.072 90.6839 35.5223 -5.31356 6.88604 -122.619 -21.829 -22.9629 3.18245 12.5554 28.4881 -15.9144 22.2248 28.4039 -7.00143 -28.2092 -27.0448 5.7625 2.87257 11.2964 -3.95217 1.26557 22.0413 -7.18953 9.8656 -14.5762 -25.875 -3.18055e-015 -1.59028e-015 -3.18055e-015 -58.5941 -0.836061 -47.1847 21.0572 13.7759 -120.611 -4.69229 9.2009 19.1096 22.9834 -0.831602 -5.69181 66.4838 -50.6245 52.699 -19.1191 14.6097 146.253 43.3545 -1.88012 -32.8344 31.9355 -0.30221 -11.935 -13.2043 37.8688 10.8328 -9.85875 48.1267 4.60791 68.9369 -64.8582 25.3479 
-123.162 90.9248 34.231 -5.72617 6.6603 -122.739 -20.8145 -20.3111 3.01918 10.7842 24.732 -14.9257 20.7263 28.0847 -6.45832 -26.2103 -25.2612 6.08588 2.36578 11.0366 -3.74494 1.2197 21.6469 -6.94021 9.77886 -13.8483 -26.5054 3.18055e-015 6.36111e-015 -3.18055e-015 -58.7963 -0.517248 -44.2613 20.6624 15.2022 -118.551 -4.88435 9.18166 18.999 20.9875 -0.60141 -5.0056 70.1949 -53.637 58.0856 -20.4904 16.8267 143.261 42.3751 -1.81043 -33.3562 32.1858 -2.18611 -11.7369 -14.3883 40.3504 8.46361 -12.1266 47.5274 5.67825 62.5323 -65.1645 17.7324 
-124.175 90.9877 32.9828 -6.31926 6.49751 -122.922 -19.8411 -18.3171 3.30177 9.45779 22.9105 -14.8123 18.3133 28.3594 -5.73066 -25.7369 -24.8373 6.16528 1.93644 10.8897 -3.46274 0.921511 21.4281 -6.53978 9.80611 -13.158 -27.2035 -1.59028e-015 -4.77083e-015 -0 -58.9134 -0.758603 -42.619 20.2081 16.931 -116.826 -5.1456 9.15431 18.883 18.7192 -0.372088 -4.23087 73.8861 -55.8182 63.1897 -21.421 18.9049 139.584 41.2961 -1.99106 -34.5741 32.261 -3.82526 -11.3393 -15.0971 42.4387 6.07261 -13.3 43.589 5.7805 56.8755 -64.116 12.2478 
